{"title":"Shadow and Fog(1991)MPEG-4[DaScubaDude]","uid":15865176,"size":868200214,"categoryP":"video","categoryS":"movies","magnet":"?xt=urn:btih:d90617f6a742b43f5f1f91c8cc3d23e2554281ee&amp;dn=Shadow+and+Fog%281991%29MPEG-4%5BDaScubaDude%5D&amp;tr=udp%3A%2F%2Ftracker.leechers-paradise.org%3A6969&amp;tr=udp%3A%2F%2Fzer0day.ch%3A1337&amp;tr=udp%3A%2F%2Fopen.demonii.com%3A1337&amp;tr=udp%3A%2F%2Ftracker.coppersurfer.tk%3A6969&amp;tr=udp%3A%2F%2Fexodus.desync.com%3A6969","seeders":4,"leechers":1,"uploader":"dascuba","files":1,"time":1474360431,"description":"Shadows and Fog (1991)\r\nPG-13 | 1h 25min | Comedy | 20 March 1992 (USA)\r\nWith a serial strangler on the loose, a bookkeeper wanders around town searching for the vigilante group intent on catching the killer.\r\nDirector: Woody Allen\r\nWriter: Woody Allen\r\nStars: Woody Allen, Mia Farrow, Michael Kirby \r\n\r\nGeneral\r\nComplete name                            : Shadow and FogSHADFOG_Title1.mp4\r\nFormat                                   : MPEG-4\r\nFormat profile                           : Base Media\r\nCodec ID                                 : isom (isom/iso2/avc1/mp41)\r\nFile size                                : 828 MiB\r\nDuration                                 : 1h 25mn\r\nOverall bit rate                         : 1 356 Kbps\r\nMovie name                               : SHADFOG\r\nGenre                                    : Comedy\r\nWriting application                      : Lavf54.6.100\r\n\r\nVideo\r\nID                                       : 1\r\nFormat                                   : AVC\r\nFormat/Info                              : Advanced Video Codec\r\nFormat profile                           :   \r\nFormat settings, CABAC                   : No\r\nFormat settings, ReFrames                : 6 frames\r\nCodec ID                                 : avc1\r\nCodec ID/Info                            : Advanced Video Coding\r\nDuration                                 : 1h 25mn\r\nBit rate                                 : 1 207 Kbps\r\nWidth                                    : 720 pixels\r\nHeight                                   : 404 pixels\r\nDisplay aspect ratio                     : 16:9\r\nFrame rate mode                          : Constant\r\nFrame rate                               : 29.970 (30000/1001) fps\r\nColor space                              : YUV\r\nChroma subsampling                       : 4:2:0\r\nBit depth                                : 8 bits\r\nScan type                                : Progressive\r\nBits/(Pixel*Frame)                       : 0.138\r\nStream size                              : 737 MiB (89%)\r\n\r\nAudio\r\nID                                       : 2\r\nFormat                                   : AAC\r\nFormat/Info                              : Advanced Audio Codec\r\nFormat profile                           : LC\r\nCodec ID                                 : 40\r\nDuration                                 : 1h 25mn\r\nBit rate mode                            : Constant\r\nBit rate                                 : 144 Kbps\r\nChannel(s)                               : 2 channels\r\nChannel positions                        : Front: L R\r\nSampling rate                            : 44.1 KHz\r\nFrame rate                               : 43.066 fps (1024 spf)\r\nCompression mode                         : Lossy\r\nStream size                              : 86.7 MiB (10%)\r\nDefault                                  : Yes\r\nAlternate group                          : 1","torrent":{"xt":"urn:btih:d90617f6a742b43f5f1f91c8cc3d23e2554281ee","amp;dn":"Shadow+and+Fog%281991%29MPEG-4%5BDaScubaDude%5D","amp;tr":["udp%3A%2F%2Ftracker.leechers-paradise.org%3A6969","udp%3A%2F%2Fzer0day.ch%3A1337","udp%3A%2F%2Fopen.demonii.com%3A1337","udp%3A%2F%2Ftracker.coppersurfer.tk%3A6969","udp%3A%2F%2Fexodus.desync.com%3A6969"],"infoHash":"d90617f6a742b43f5f1f91c8cc3d23e2554281ee","infoHashBuffer":{"type":"Buffer","data":[217,6,23,246,167,66,180,63,95,31,145,200,204,61,35,226,85,66,129,238]},"announce":[],"urlList":[]}}